<?xml version="1.0" encoding="UTF-8"?>
<svg width="100%" height="100%" viewBox="0 0 320 600" fill="none" xmlns="http://www.w3.org/2000/svg">
  <rect width="320" height="600" fill="transparent"/>
  <!-- Dirt mound -->
  <ellipse cx="160" cy="570" rx="120" ry="40" fill="#5B3A1B"/>
  <ellipse cx="160" cy="590" rx="100" ry="20" fill="#7C4F1D"/>
  <!-- Skeleton body only, no arms -->
  <g id="body">
    <!-- Skull -->
    <ellipse cx="160" cy="220" rx="54" ry="54" fill="#F8F8F8" stroke="#222" stroke-width="6"/>
    <!-- Eyes -->
    <ellipse cx="140" cy="220" rx="12" ry="18" fill="#222"/>
    <ellipse cx="180" cy="220" rx="12" ry="18" fill="#222"/>
    <!-- Nose -->
    <ellipse cx="160" cy="245" rx="7" ry="10" fill="#222"/>
    <!-- Mouth -->
    <rect x="135" y="265" width="50" height="14" rx="7" fill="#222"/>
    <rect x="135" y="265" width="50" height="6" rx="3" fill="#F8F8F8"/>
    <!-- Spine -->
    <rect x="152" y="285" width="16" height="120" rx="8" fill="#F8F8F8" stroke="#222" stroke-width="4"/>
    <!-- Ribs -->
    <ellipse cx="160" cy="320" rx="38" ry="14" fill="#F8F8F8" stroke="#222" stroke-width="4"/>
    <ellipse cx="160" cy="340" rx="34" ry="12" fill="#F8F8F8" stroke="#222" stroke-width="4"/>
    <ellipse cx="160" cy="360" rx="30" ry="10" fill="#F8F8F8" stroke="#222" stroke-width="4"/>
    <!-- Legs -->
    <rect x="130" y="400" width="16" height="100" rx="8" fill="#F8F8F8" stroke="#222" stroke-width="4"/>
    <rect x="174" y="400" width="16" height="100" rx="8" fill="#F8F8F8" stroke="#222" stroke-width="4"/>
    <!-- Feet -->
    <ellipse cx="138" cy="510" rx="14" ry="10" fill="#F8F8F8" stroke="#222" stroke-width="4"/>
    <ellipse cx="182" cy="510" rx="14" ry="10" fill="#F8F8F8" stroke="#222" stroke-width="4"/>
  </g>
</svg> 